:version 1.10
:name ASF
:units
  mass 1
  length 1
  angle deg
:documentation
  ASF file generated by Kaydara
:root
  axis xyz
  order  tx ty tz rx ry rz
  position 0 0 0
  orientation 0 0 0
:bonedata
  begin
    id 1
    name RightUpLegDummy
    direction -0.718183 -0.695806 0.00816078
    length 4.904
    axis 0 0 0 xyz
  end
  begin
    id 2
    name RightUpLeg
    direction -0.0736652 -0.994202 0.0783343
    length 17.4976
    axis -2.72909 -3.00389 -4.00133 xyz
    dof rx ry rz
  end
  begin
    id 3
    name RightLeg
    direction -0.0389037 -0.994596 -0.0962598
    length 16.5821
    axis 3.95836 -18.5909 -4.46993 xyz
    dof rx ry rz
  end
  begin
    id 4
    name RightFoot
    direction -0.311643 -0.412678 0.855906
    length 3.77069
    axis -1.99483 -18.8351 -3.27644 xyz
    dof rx ry rz
  end
  begin
    id 5
    name RightToes
    direction -0.317852 0.0389852 0.947339
    length 3.85082
    axis -2.00228 -18.1713 -3.25211 xyz
    dof rx ry rz
  end
  begin
    id 6
    name SpineDummy
    direction 8.3039e-015 1 4.44677e-016
    length 4.6813
    axis 0 0 0 xyz
  end
  begin
    id 7
    name Spine
    direction -0.000262373 0.999988 0.00493267
    length 10.1015
    axis -0.00246081 0.00062579 0.0150362 xyz
    dof rx ry rz
  end
  begin
    id 8
    name Spine1
    direction 0 0 0
    length 0
    axis -0.00349562 0.000650293 0.0196666 xyz
    dof rx ry rz
  end
  begin
    id 9
    name HEadDummy
    direction -0.000343232 0.999999 0.00123745
    length 3.43865
    axis -0.00349562 0.000650293 0.0196666 xyz
  end
  begin
    id 10
    name HEad
    direction -0.0461221 0.980933 0.188796
    length 5.12695
    axis -0.00351404 -7.04812 0.0199272 xyz
    dof rx ry rz
  end
  begin
    id 11
    name LeftShoulder1Dummy
    direction 0.998904 -0.0399089 -0.0244534
    length 3.5433
    axis -0.00349562 0.000650293 0.0196666 xyz
  end
  begin
    id 12
    name LeftShoulder1
    direction 0.99951 1.64443e-005 0.0312999
    length 4.05031
    axis -0.00349562 0.000650293 0.0196666 xyz
    dof rx ry rz
  end
  begin
    id 13
    name LeftArm
    direction 0.984791 0.0515299 0.165927
    length 12.9126
    axis -64.823 -10.7743 5.20463 xyz
    dof rx ry rz
  end
  begin
    id 14
    name LeftForeArm
    direction 0.984968 0.0534808 0.16425
    length 10.8596
    axis -30.0462 -7.70601 1.87451 xyz
    dof rx ry rz
  end
  begin
    id 15
    name LeftHand
    direction 0.975871 0.0289682 0.216418
    length 6.62295
    axis -20.1348 -6.98077 1.86072 xyz
    dof rx ry rz
  end
  begin
    id 16
    name RightShoulderDummy
    direction -0.998877 -0.0405946 -0.0244307
    length 3.5433
    axis -0.00349562 0.000650293 0.0196666 xyz
  end
  begin
    id 17
    name RightShoulder
    direction -0.998933 -0.0249743 -0.0388558
    length 4.05031
    axis -0.0205316 -4.02113 1.41395 xyz
    dof rx ry rz
  end
  begin
    id 18
    name RightArm
    direction -0.997559 0.068664 0.0127103
    length 12.9638
    axis -67.3882 1.84188 -6.15987 xyz
    dof rx ry rz
  end
  begin
    id 19
    name RightForeArm
    direction -0.991508 0.0912848 0.0926241
    length 10.8312
    axis -22.1975 3.41087 -4.28711 xyz
    dof rx ry rz
  end
  begin
    id 20
    name RightHand
    direction -0.989262 0.0600788 0.133232
    length 6.57864
    axis -12.2911 2.17515 -4.39675 xyz
    dof rx ry rz
  end
  begin
    id 21
    name LeftUpLegDummy
    direction 0.718183 -0.695806 0.00816078
    length 4.904
    axis 0 0 0 xyz
  end
  begin
    id 22
    name LeftUpLeg
    direction 0.0831398 -0.99469 0.0606531
    length 17.4976
    axis -1.71016 2.29552 4.63832 xyz
    dof rx ry rz
  end
  begin
    id 23
    name LeftLeg
    direction 0.0498442 -0.991778 -0.117862
    length 16.5821
    axis 5.13757 15.5727 5.13348 xyz
    dof rx ry rz
  end
  begin
    id 24
    name LeftFoot
    direction 0.269026 -0.433896 0.85986
    length 3.77069
    axis -0.576502 15.6961 4.10267 xyz
    dof rx ry rz
  end
  begin
    id 25
    name LeftToes
    direction 0.277311 0.0251143 0.960452
    length 3.85048
    axis -0.576502 15.6961 4.10267 xyz
    dof rx ry rz
  end
:hierarchy
  begin
    root RightUpLegDummy SpineDummy LeftUpLegDummy
    RightUpLegDummy RightUpLeg
    RightUpLeg RightLeg
    RightLeg RightFoot
    RightFoot RightToes
    SpineDummy Spine
    Spine Spine1
    Spine1 HEadDummy LeftShoulder1Dummy RightShoulderDummy
    HEadDummy HEad
    LeftShoulder1Dummy LeftShoulder1
    LeftShoulder1 LeftArm
    LeftArm LeftForeArm
    LeftForeArm LeftHand
    RightShoulderDummy RightShoulder
    RightShoulder RightArm
    RightArm RightForeArm
    RightForeArm RightHand
    LeftUpLegDummy LeftUpLeg
    LeftUpLeg LeftLeg
    LeftLeg LeftFoot
    LeftFoot LeftToes
  end

:SAMPLES-PER-SECOND 30
:FULLY-SPECIFIED
:DEGREES
59
root  -1.30055 5.93871 15.4458 -46.5078 -1.63272 3.16785
RightUpLeg  -85.8234 -3.25678 -3.02298
RightLeg  85.5425 15.7233 -6.69607
RightFoot  34.727 0.715336 -1.93338
RightToes  5.82077e-011 -3.18055e-015 -2.98177e-016
Spine  31.8506 1.75498 5.40416
Spine1  18.2179 2.00861 -2.46952
HEad  -17.335 0.507513 4.46923
LeftShoulder1  -3.88251e-019 9.70628e-020 -3.87848e-018
LeftArm  -15.9373 73.3498 -59.0706
LeftForeArm  22.3119 -0.833283 -3.01242
LeftHand  -13.0389 -11.4356 78.0255
RightShoulder  5.38445 10.0738 25.1137
RightArm  -6.38599 -64.6843 23.3774
RightForeArm  5.02398 1.10238 -6.87408
RightHand  -8.18505 6.7755 -68.3059
LeftUpLeg  -87.6262 3.78747 -0.731585
LeftLeg  90.7073 -13.9229 7.2287
LeftFoot  35.342 1.20572 -2.44096
LeftToes  5.91571e-011 -3.44359e-011 -3.93244e-011
60
root  -1.29828 5.93786 15.4406 -46.4885 -1.60326 3.19496
RightUpLeg  -85.8383 -3.24877 -3.07854
RightLeg  85.5178 15.7218 -6.68945
RightFoot  34.7721 0.714432 -1.92705
RightToes  5.82077e-011 -3.18055e-015 -2.98177e-016
Spine  31.7948 1.74778 5.31783
Spine1  18.2848 1.9765 -2.47319
HEad  -17.1859 0.294058 4.41714
LeftShoulder1  -3.88251e-019 9.70628e-020 -3.87848e-018
LeftArm  -16.1659 73.3364 -59.243
LeftForeArm  22.3109 -0.826309 -2.97617
LeftHand  -12.9439 -11.3439 77.9279
RightShoulder  5.37813 10.0668 25.0934
RightArm  -6.47875 -64.6465 23.4908
RightForeArm  4.43146 1.34824 -6.936
RightHand  -7.74673 6.33019 -67.3307
LeftUpLeg  -87.6336 3.79348 -0.790628
LeftLeg  90.6652 -13.9218 7.26468
LeftFoot  35.3548 1.20775 -2.45371
LeftToes  5.91571e-011 -3.44359e-011 -3.93244e-011
61
root  -1.29748 5.9472 15.4308 -46.4643 -1.64494 3.14806
RightUpLeg  -85.7991 -3.22218 -3.02035
RightLeg  85.4426 15.7163 -6.71395
RightFoot  34.7917 0.710146 -1.91705
RightToes  5.82077e-011 -3.18055e-015 -2.98177e-016
Spine  31.7745 1.73201 5.29657
Spine1  18.2913 1.9466 -2.4215
HEad  -17.0991 0.217708 4.45139
LeftShoulder1  -3.88251e-019 9.70628e-020 -3.87848e-018
LeftArm  -16.2336 73.3557 -59.347
LeftForeArm  22.3368 -0.830365 -2.99487
LeftHand  -12.8574 -11.2702 77.8047
RightShoulder  5.37626 10.0673 25.0824
RightArm  -6.487 -64.5541 23.5018
RightForeArm  3.49931 1.73995 -7.01001
RightHand  -7.12264 5.6921 -65.8544
LeftUpLeg  -87.6324 3.80508 -0.73594
LeftLeg  90.6304 -13.9229 7.266
LeftFoot  35.3411 1.20821 -2.45084
LeftToes  5.91571e-011 -3.44359e-011 -3.93244e-011
62
root  -1.29716 5.94569 15.4258 -46.5342 -1.57431 3.16354
RightUpLeg  -85.7296 -3.26247 -3.09327
RightLeg  85.4537 15.7177 -6.69565
RightFoot  34.7564 0.706056 -1.91328
RightToes  5.82077e-011 -3.18055e-015 -2.98177e-016
Spine  31.8488 1.73616 5.18471
Spine1  18.1734 1.90682 -2.35259
HEad  -16.8992 0.231138 4.60755
LeftShoulder1  -3.88251e-019 9.70628e-020 -3.87848e-018
LeftArm  -16.1141 73.4135 -59.3026
LeftForeArm  22.4267 -0.834291 -3.00687
LeftHand  -12.8285 -11.2611 77.7093
RightShoulder  5.39367 10.081 25.1532
RightArm  -6.2891 -64.4483 23.2407
RightForeArm  3.43488 1.7552 -6.98627
RightHand  -7.09765 5.6901 -65.6591
LeftUpLeg  -87.549 3.75328 -0.802745
LeftLeg  90.608 -13.9201 7.28303
LeftFoot  35.3269 1.20882 -2.45543
LeftToes  5.91571e-011 -3.44359e-011 -3.93244e-011
63
root  -1.29722 5.93752 15.4223 -46.6291 -1.4792 3.18041
RightUpLeg  -85.6587 -3.34557 -3.1783
RightLeg  85.4943 15.7201 -6.67795
RightFoot  34.7229 0.703741 -1.9073
RightToes  5.82077e-011 -3.18055e-015 -2.98177e-016
Spine  32.0192 1.73356 5.11545
Spine1  17.8239 1.88144 -2.3436
HEad  -16.5191 0.232989 4.83935
LeftShoulder1  -3.88251e-019 9.70628e-020 -3.87848e-018
LeftArm  -15.8337 73.6024 -59.1007
LeftForeArm  22.4917 -0.829228 -2.97435
LeftHand  -12.8394 -11.2751 77.7084
RightShoulder  5.44031 10.1159 25.3459
RightArm  -5.8196 -64.3965 22.6286
RightForeArm  4.59577 1.25212 -6.83495
RightHand  -7.80606 6.43638 -67.2667
LeftUpLeg  -87.4539 3.68822 -0.895974
LeftLeg  90.5844 -13.9146 7.30665
LeftFoot  35.3311 1.20754 -2.4548
LeftToes  5.91571e-011 -3.44359e-011 -3.93244e-011
64
root  -1.29757 5.94228 15.4143 -46.6121 -1.54998 3.07722
RightUpLeg  -85.6202 -3.37995 -3.02705
RightLeg  85.438 15.7164 -6.70869
RightFoot  34.7366 0.707302 -1.91498
RightToes  5.82077e-011 -3.18055e-015 -2.98177e-016
Spine  32.1365 1.70362 5.26249
Spine1  17.3976 1.89655 -2.39862
HEad  -16.1089 0.211705 5.08956
LeftShoulder1  -3.88251e-019 9.70628e-020 -3.87848e-018
LeftArm  -15.1673 73.9674 -58.6413
LeftForeArm  22.3475 -0.838576 -3.03664
LeftHand  -12.8657 -11.2819 77.8005
RightShoulder  5.49654 10.1543 25.5838
RightArm  -5.28765 -64.3744 21.9564
RightForeArm  5.46108 0.846709 -6.69002
RightHand  -8.19546 6.75614 -68.4667
LeftUpLeg  -87.4671 3.70306 -0.788343
LeftLeg  90.5613 -13.9108 7.28741
LeftFoot  35.334 1.20142 -2.44086
LeftToes  5.91571e-011 -3.44359e-011 -3.93244e-011
65
root  -1.2981 5.95191 15.4085 -46.5576 -1.63446 2.98435
RightUpLeg  -85.6154 -3.4033 -2.85581
RightLeg  85.3775 15.7158 -6.71711
RightFoot  34.7293 0.721945 -1.94816
RightToes  5.82077e-011 -3.18055e-015 -2.98177e-016
Spine  32.069 1.68604 5.37975
Spine1  17.2814 1.91441 -2.44199
HEad  -15.7753 0.174289 5.35079
LeftShoulder1  -3.88251e-019 9.70628e-020 -3.87848e-018
LeftArm  -14.023 74.3491 -57.9176
LeftForeArm  21.9647 -0.885891 -3.31922
LeftHand  -12.9555 -11.3538 77.9446
RightShoulder  5.53617 10.1723 25.7679
RightArm  -5.01156 -64.2614 21.6283
RightForeArm  4.80449 0.997721 -6.65378
RightHand  -7.63254 6.10811 -67.5384
LeftUpLeg  -87.5129 3.73939 -0.671789
LeftLeg  90.5506 -13.9074 7.2553
LeftFoot  35.3141 1.19057 -2.41801
LeftToes  5.91571e-011 -3.44359e-011 -3.93244e-011
66
root  -1.29863 5.94575 15.4106 -46.6217 -1.51799 3.05537
RightUpLeg  -85.5948 -3.50783 -2.94947
RightLeg  85.4402 15.722 -6.67275
RightFoot  34.6587 0.73784 -1.9865
RightToes  5.82077e-011 -3.18055e-015 -2.98177e-016
Spine  31.9513 1.72546 5.18232
Spine1  17.4358 1.88559 -2.38908
HEad  -15.3915 0.0769144 5.63136
LeftShoulder1  -3.88251e-019 9.70628e-020 -3.87848e-018
LeftArm  -12.9056 74.5874 -57.2418
LeftForeArm  21.5583 -0.947214 -3.67723
LeftHand  -13.1186 -11.5189 78.0844
RightShoulder  5.56554 10.1785 25.9173
RightArm  -4.86452 -64.0478 21.4621
RightForeArm  3.7194 1.32897 -6.65459
RightHand  -6.94451 5.38427 -66.0068
LeftUpLeg  -87.4488 3.71374 -0.818843
LeftLeg  90.5483 -13.9077 7.26368
LeftFoot  35.2857 1.18208 -2.40094
LeftToes  5.91571e-011 -3.44359e-011 -3.93244e-011
67
root  -1.30152 5.93762 15.41 -46.6922 -1.45603 3.10724
RightUpLeg  -85.5507 -3.58932 -2.97219
RightLeg  85.4714 15.7198 -6.67993
RightFoot  34.631 0.758855 -2.03485
RightToes  5.82077e-011 -3.18055e-015 -2.98177e-016
Spine  32.009 1.80675 4.95467
Spine1  17.287 1.84914 -2.22258
HEad  -14.8452 -0.0742645 5.87286
LeftShoulder1  -3.88251e-019 9.70628e-020 -3.87848e-018
LeftArm  -12.4341 74.7781 -56.9448
LeftForeArm  21.3503 -0.975845 -3.84605
LeftHand  -13.2174 -11.6329 78.1204
RightShoulder  5.60233 10.1947 26.0884
RightArm  -4.34799 -63.9334 20.8634
RightForeArm  4.18571 1.31072 -6.5643
RightHand  -7.3574 5.88703 -66.6018
LeftUpLeg  -87.3856 3.75275 -0.929607
LeftLeg  90.5497 -13.9067 7.24636
LeftFoot  35.2695 1.16858 -2.3719
LeftToes  5.91571e-011 -3.44359e-011 -3.93244e-011
68
root  -1.31046 5.94848 15.4012 -46.5871 -1.71098 2.97552
RightUpLeg  -85.5598 -3.50578 -2.60984
RightLeg  85.336 15.7054 -6.7438
RightFoot  34.6959 0.797674 -2.11971
RightToes  5.82077e-011 -3.18055e-015 -2.98177e-016
Spine  32.1468 1.89693 5.0182
Spine1  16.7431 1.86122 -2.00619
HEad  -14.327 -0.185019 5.96487
LeftShoulder1  -3.88251e-019 9.70628e-020 -3.87848e-018
LeftArm  -12.6692 75.0553 -57.0683
LeftForeArm  21.3326 -0.961431 -3.77221
LeftHand  -13.1492 -11.5789 78.0112
RightShoulder  5.62553 10.2073 26.1915
RightArm  -3.50861 -64.041 19.9571
RightForeArm  6.01691 1.05633 -6.39825
RightHand  -8.59264 7.21439 -69.0215
LeftUpLeg  -87.4962 3.96361 -0.686444
LeftLeg  90.571 -13.9017 7.14229
LeftFoot  35.2582 1.14808 -2.32697
LeftToes  5.91571e-011 -3.44359e-011 -3.93244e-011
69
root  -1.31394 5.95334 15.4027 -46.4784 -1.85037 2.94592
RightUpLeg  -85.6567 -3.45201 -2.42958
RightLeg  85.2991 15.7025 -6.69363
RightFoot  34.7041 0.829529 -2.19104
RightToes  5.82077e-011 -3.18055e-015 -2.98177e-016
Spine  32.0471 2.00432 4.93975
Spine1  16.5741 1.84519 -1.79252
HEad  -14.107 -0.200573 5.88206
LeftShoulder1  -3.88251e-019 9.70628e-020 -3.87848e-018
LeftArm  -13.292 75.2794 -57.5581
LeftForeArm  21.3218 -0.93506 -3.63531
LeftHand  -13.0486 -11.4834 77.9037
RightShoulder  5.59747 10.1893 26.0719
RightArm  -3.21978 -64.1788 19.7577
RightForeArm  7.25394 0.914305 -6.31032
RightHand  -9.37559 7.99005 -70.5479
LeftUpLeg  -87.6121 4.11061 -0.591732
LeftLeg  90.6086 -13.9014 7.07972
LeftFoot  35.2383 1.13742 -2.30443
LeftToes  5.91571e-011 -3.44359e-011 -3.93244e-011
